<svg height="512" viewBox="0 0 58 55" width="512" xmlns="http://www.w3.org/2000/svg"><g id="Page-1" fill="none" fill-rule="evenodd"><g id="011---Brain-Storm" fill-rule="nonzero"><path id="Shape" d="m58 27.5c.0028965 2.1078229-.7817228 4.1407002-2.2 5.7 0 .0055228-.0044772.01-.01.01 0 .02-.01.03-.01.05-.1878943 1.0119062-.5107777 1.9940099-.96 2.92-.8314238 1.7415399-2.0695886 3.25752-3.61 4.42h-.01c-.19.14-.38.28-.58.41-.0316433.0256591-.0650598.0490507-.1.07-.6119304.3935414-1.2578377.7315551-1.93 1.01l.03.03c.5157832.4695137.9724774 1.0000848 1.36 1.58 2.3 3.31 2.85 8.14 2.98 10.25.0137058.2737686-.0855689.5411614-.2746112.739656-.1890424.1984945-.4512775.3106869-.7253888.310344h-3.05c-.4833625.0016499-.9012406-.3368313-1-.81-.29-1.5-1.41-4.69-5.91-6.19-4.9-1.63-6.47-3.27-6.88-6-.0884599-.6628733-.1285658-1.3313051-.12-2-1.7309776-.0002193-3.4468181-.3223633-5.06-.95-1.982789 2.3015187-5.0437547 3.3689132-8.0277201 2.7993596s-5.4365905-2.6893346-6.4322799-5.5593596c-.6059931.2200106-1.227769.3938404-1.86.52-.6999024.1240723-1.4091894.1876405-2.12.19-6.35127462 0-11.5-5.1487254-11.5-11.5-.00264235-1.7261121.39078395-3.4298191 1.15-4.98.31023088-.6642753.68894937-1.2943557 1.13-1.88-.06051787-.170125-.11061074-.3437802-.15-.52-.08872048-.3666572-.13237633-.7427691-.13-1.12.00153337-2.3879368 1.68819272-4.442899 4.03-4.91-.01996766-.196033-.02998052-.3929526-.03-.59-.00283333-.4812867.05086783-.9612409.16-1.43.66849318-2.96415924 3.30139457-5.06964978 6.34-5.07.977492-.00320175 1.9425353.21923729 2.82.65 1.4419625-2.43048669 3.891154-4.09281514 6.6823166-4.53545797 2.7911626-.44264282 5.6344957.38035867 7.7576834 2.24545797.9894399-1.58911021 2.7836605-2.49241515 4.6494774-2.3407912s3.4906461 1.33277492 4.2105226 3.0607912c.4581686-.05214319.9188752-.07885082 1.38-.08 6.2404004-.00090447 11.4399667 4.78130536 11.96 11h.04c1.780634-.0009583 3.4274152.9451353 4.3234723 2.4838816s.9061613 3.4379249.0265277 4.9861184c1.0750001 1.456431 1.653443 3.2198054 1.65 5.03z" fill="#fb7b76"/><path id="Shape" d="m25 32.44v-8.44h-4.028c-.1874509.0001521-.3592402-.1045562-.4450039-.2712369-.0857636-.1666807-.0710926-.3673301.0380039-.5197631l8.528-11.939c.1262331-.1768981.3522775-.2520005.5592737-.1858165s.3475385.2584971.3477263.4758165v8.44h4.028c.1874509-.0001521.3592402.1045562.4450039.2712369.0857636.1666807.0710926.3673301-.0380039.5197631l-8.528 11.939c-.1262331.1768981-.3522775.2520005-.5592737.1858165s-.3475385-.2584971-.3477263-.4758165z" fill="#f3d55b"/><g fill="#df4d60"><path id="Shape" d="m11.6 13.81c-.1717804.132314-.3831873.2027829-.6.2-.3142786-.0020134-.6098221-.1497852-.8-.4-.92990473-1.2290293-2.47550974-1.8255786-3.99-1.54-.05934826.011603-.11955225.0182924-.18.02-.01996766-.196033-.02998052-.3929526-.03-.59-.00283333-.4812867.05086783-.9612409.16-1.43 2.16538473-.30163324 4.3241543.5940265 5.64 2.34.3313708.4418278.2418278 1.0686292-.2 1.4z"/><path id="Shape" d="m4.29 21.8c-.17903338.3047463-.5065578.491359-.86.49-.17928748-.001483-.35508252-.0497405-.51-.14-.69624254-.4152587-1.2989065-.9702543-1.77-1.63.31023088-.6642753.68894937-1.2943557 1.13-1.88-.06051787-.170125-.11061074-.3437802-.15-.52.0399145.0581434.07029639.122283.09.19.31432552.8823995.92132584 1.6305626 1.72 2.12.47489313.281719.63157648.8950224.35 1.37z"/><path id="Shape" d="m55.78 33.26c-.1878943 1.0119062-.5107777 1.9940099-.96 2.92-1.2002707.5426696-2.5027548.8222604-3.82.82-1.4988169.0000696-2.9761498-.3564098-4.31-1.04-.7562767-.3820274-1.4562129-.8665987-2.08-1.44-2.4480576 1.1622429-5.3758868.1477368-6.58-2.28-.1932607-.3211808-.1906728-.7234705.0067041-1.0421383.1973768-.3186678.5563928-.5001928.9300368-.4702434s.6991617.2663431.8432591.6123817c.6181702 1.2521112 2.0185024 1.9121414 3.3777138 1.5920459s2.3178388-1.5356627 2.3122862-2.9320459c-.0002011-.4655696-.1098146-.9245759-.32-1.34-.2407879-.494627-.0405257-1.0909633.45-1.34.4916536-.2469243 1.0904244-.050313 1.34.44.9112089 1.812612.6302489 3.9969777-.71 5.52.4103798.3507834.8600492.6528001 1.34.9 2.6636778 1.3656563 5.8862201 1.0032188 8.18-.92z"/><path id="Shape" d="m48.62 42.12c.5157832.4695137.9724774 1.0000848 1.36 1.58-1.105682.5271889-2.2808159.8942077-3.49 1.09-.0529056.0083078-.1064716.0116557-.16.01-.4907009-.001078-.9090305-.3560243-.99-.84-.0419704-.2613601.0220419-.5286655.1778476-.7426636.1558056-.2139981.3905335-.3570106.6521524-.3973364.8397149-.1434451 1.6612522-.37817 2.45-.7z"/><path id="Shape" d="m39.41 41.35c-1.0868003.3285007-2.2072428.5331324-3.34.61-.29.03-.62.04-.95.04-.0884599-.6628733-.1285658-1.3313051-.12-2 .31 0 .62-.01.92-.04.987299-.0629918 1.9638897-.2408588 2.91-.53.342975-.103607.7151706-.0163689.9763844.2288526.2612138.2452216.3717612.6111715.29.96-.0817612.3488286-.3434094.6275404-.6863844.7311474z"/><path id="Shape" d="m16.06 29.65c-.6956465 1.1635834-1.0620333 2.4943281-1.06 3.85-.0020493.8347526.1400375 1.6635923.42 2.45.0392508.1090803.0595438.2240736.06.34-.6059931.2200106-1.227769.3938404-1.86.52-.0308097-.0580716-.057541-.1182169-.08-.18-.3584805-1.0045627-.5411539-2.0633917-.54-3.13 0-.17.03-.33.03-.5h-.03c-2.7614237 0-5-2.2385763-5-5-.00010682-.5556115.44449531-1.0091057 1-1.02.26288366-.0037377.51637337.0976681.70414724.2816865.18777386.1840184.29427947.435408.29585276.6983135v.04c.0049422 1.6548028 1.3451972 2.9950578 3 3 .1139917-.0000584.2277594-.0100967.34-.03.2301441-.8281075.569811-1.6217846 1.01-2.36.291673-.4688279.9039145-.61967 1.38-.34.4709119.2908848.6183745.9075467.33 1.38z"/><path id="Shape" d="m14.309 9.081c-.0857226-.0001979-.1710727-.01128669-.254-.033-.2568049-.06697777-.4764524-.23329228-.6105621-.46231048-.1341098-.22901819-.1716809-.50195399-.1044379-.75868952.9262661-3.51767353 3.6072093-6.30533624 7.0860662-7.36813926 3.478857-1.06280302 7.2599631-.24931907 9.9939338 2.15013926.2823805.23183179.4158525.59920959.3481365.95823499-.0677161.35902539-.3258403.65254392-.6732679.76558715-.3474276.11304324-.7288503.02761543-.9948686-.22282214-1.5478872-1.36105997-3.5388262-2.11121732-5.6-2.11-3.001087.01042531-5.7782325 1.58940056-7.322 4.163-.3994006.67798668-.7023169 1.40835168-.9 2.17-.1148368.44099644-.5132972.74857991-.969.748z"/><path id="Shape" d="m39 7c-.5522847 0-1-.44771525-1-1 0-2.209139-1.790861-4-4-4s-4 1.790861-4 4c0 .55228475-.4477153 1-1 1s-1-.44771525-1-1c0-3.3137085 2.6862915-6 6-6s6 2.6862915 6 6c0 .26521649-.1053568.5195704-.2928932.70710678s-.4418903.29289322-.7071068.29289322z"/><path id="Shape" d="m54.11 25.53c-.468886.0003389-.8750443-.3251544-.9768617-.7828524s.1280507-.9246788.5528617-1.1231476c.7560019-.3528295 1.3846309-.9304697 1.8-1.654.9371436-1.6491622.5871469-3.7297532-.8379928-4.9815324-1.4251397-1.2517791-3.5334946-1.3304947-5.0480072-.1884676-.2858125.2143594-.6642734.2599564-.9928203.1196152-.3285469-.1403411-.5572656-.4452994-.6-.8-.0427344-.3547005.1070078-.7052558.3928203-.9196152 1.8181059-1.3635794 4.2505774-1.5829152 6.2832816-.5665631 2.0327041 1.016352 3.3167184 3.0939307 3.3167184 5.3665631.0034461 2.3328169-1.349552 4.4548301-3.466 5.436-.1327407.0620157-.2774871.0941057-.424.094z"/></g></g></g></svg>